<svg width="1200" height="900" viewBox="0 0 1200 900" fill="none" xmlns="http://www.w3.org/2000/svg">
  <rect width="1200" height="900" fill="#DDE8F0"/>
  <rect width="1200" height="900" fill="url(#paint0_linear)"/>
  <circle cx="986" cy="170" r="104" fill="#F5FAFF" fill-opacity="0.7"/>
  <circle cx="170" cy="756" r="146" fill="#7D92A8" fill-opacity="0.24"/>
  <rect x="112" y="112" width="976" height="676" rx="42" fill="#F7FAFD" fill-opacity="0.76" stroke="#58728B" stroke-opacity="0.2" stroke-width="4"/>
  <circle cx="444" cy="360" r="96" fill="#6A86A3"/>
  <circle cx="600" cy="304" r="116" fill="#7D9AB6"/>
  <circle cx="760" cy="366" r="90" fill="#58728B"/>
  <path d="M298 700C320 566 390 486 480 486C570 486 642 566 664 700H298Z" fill="#6A86A3"/>
  <path d="M438 700C466 536 558 434 670 434C782 434 874 536 902 700H438Z" fill="#7D9AB6"/>
  <path d="M634 700C654 578 716 504 798 504C880 504 942 578 962 700H634Z" fill="#58728B"/>
  <rect x="164" y="640" width="248" height="36" rx="18" fill="#58728B" fill-opacity="0.16"/>
  <rect x="164" y="694" width="452" height="24" rx="12" fill="#58728B" fill-opacity="0.1"/>
  <text x="164" y="612" fill="#405468" font-family="Arial, sans-serif" font-size="52" font-weight="700">Family Placeholder</text>
  <text x="164" y="768" fill="#5D7389" font-family="Arial, sans-serif" font-size="28">Replace with a family photo later</text>
  <defs>
    <linearGradient id="paint0_linear" x1="126" y1="78" x2="1018" y2="840" gradientUnits="userSpaceOnUse">
      <stop stop-color="#F2F7FB"/>
      <stop offset="1" stop-color="#A7BDCF"/>
    </linearGradient>
  </defs>
</svg>
